<svg width="40" height="40" viewBox="0 0 40 40" fill="none" xmlns="http://www.w3.org/2000/svg">
<path fill-rule="evenodd" clip-rule="evenodd" d="M29.8372 28.6493L24.1023 22.9144C25.2132 21.5422 25.882 19.7987 25.882 17.8996C25.882 13.4983 22.3007 9.91699 17.8994 9.91699C13.498 9.91699 9.91675 13.4982 9.91675 17.8996C9.91675 22.301 13.498 25.8823 17.8994 25.8823C19.7984 25.8823 21.542 25.2134 22.9142 24.1025L28.6491 29.8374C28.8129 30.0013 29.028 30.0837 29.2432 30.0837C29.4583 30.0837 29.6734 30.0013 29.8372 29.8374C30.1658 29.5089 30.1658 28.9778 29.8372 28.6493ZM17.8994 24.2017C14.424 24.2017 11.5973 21.375 11.5973 17.8996C11.5973 14.4242 14.424 11.5975 17.8994 11.5975C21.3748 11.5975 24.2015 14.4242 24.2015 17.8996C24.2015 21.375 21.3748 24.2017 17.8994 24.2017Z" fill="#979797"/>
</svg>
