<svg width="24" height="24" viewBox="0 0 24 24" fill="none" xmlns="http://www.w3.org/2000/svg">
<g clip-path="url(#clip0_986_111151)">
<path d="M12 24C18.6274 24 24 18.6274 24 12C24 5.37258 18.6274 0 12 0C5.37258 0 0 5.37258 0 12C0 18.6274 5.37258 24 12 24Z" fill="white"/>
<path d="M16.0833 7.3335H7.91663C7.4525 7.3335 7.00738 7.51787 6.67919 7.84606C6.351 8.17425 6.16663 8.61937 6.16663 9.0835V14.9168C6.16663 15.381 6.351 15.8261 6.67919 16.1543C7.00738 16.4825 7.4525 16.6668 7.91663 16.6668H16.0833C16.5474 16.6668 16.9925 16.4825 17.3207 16.1543C17.6489 15.8261 17.8333 15.381 17.8333 14.9168V9.0835C17.8333 8.61937 17.6489 8.17425 17.3207 7.84606C16.9925 7.51787 16.5474 7.3335 16.0833 7.3335ZM7.91663 8.50016H16.0833C16.238 8.50016 16.3864 8.56162 16.4958 8.67102C16.6052 8.78041 16.6666 8.92879 16.6666 9.0835L12 11.9302L7.33329 9.0835C7.33329 8.92879 7.39475 8.78041 7.50415 8.67102C7.61354 8.56162 7.76192 8.50016 7.91663 8.50016ZM16.6666 14.9168C16.6666 15.0715 16.6052 15.2199 16.4958 15.3293C16.3864 15.4387 16.238 15.5002 16.0833 15.5002H7.91663C7.76192 15.5002 7.61354 15.4387 7.50415 15.3293C7.39475 15.2199 7.33329 15.0715 7.33329 14.9168V10.4135L11.6966 13.0793C11.7853 13.1305 11.8859 13.1575 11.9883 13.1575C12.0907 13.1575 12.1913 13.1305 12.28 13.0793L16.6666 10.4135V14.9168Z" fill="#333333"/>
</g>
<defs>
<clipPath id="clip0_986_111151">
<rect width="24" height="24" fill="white"/>
</clipPath>
</defs>
</svg>
