<svg width="40" height="40" viewBox="0 0 40 40" fill="none" xmlns="http://www.w3.org/2000/svg">
<rect x="0.5" y="0.5" width="40" height="40" fill="white"/>
<path fill-rule="evenodd" clip-rule="evenodd" d="M21.757 27.6619C22.309 28.221 22.3032 29.1127 21.7395 29.6648C21.17 30.2227 20.2467 30.2227 19.6771 29.6648L10.9271 21.0934L10.9097 21.076C10.3577 20.5169 10.3635 19.6252 10.9271 19.0731L19.6771 10.5017L19.6949 10.4846C20.2657 9.94384 21.1759 9.94953 21.7395 10.5017L21.757 10.519C22.309 11.0782 22.3032 11.9698 21.7395 12.522L14.0207 20.0833L21.7395 27.6445L21.757 27.6619ZM30.507 27.6619C31.059 28.221 31.0532 29.1127 30.4895 29.6648C29.92 30.2227 28.9967 30.2227 28.4271 29.6648L19.6771 21.0934L19.6597 21.076C19.1077 20.5169 19.1135 19.6252 19.6771 19.0731L28.4271 10.5017L28.4449 10.4846C29.0157 9.94384 29.9259 9.94953 30.4895 10.5017L30.507 10.519C31.059 11.0782 31.0532 11.9698 30.4895 12.522L22.7707 20.0833L30.4895 27.6445L30.507 27.6619Z" fill="#C00000"/>
</svg>
