<svg width="40" height="40" viewBox="0 0 40 40" fill="none" xmlns="http://www.w3.org/2000/svg">
<rect x="0.5" y="0.5" width="40" height="40" fill="white"/>
<path fill-rule="evenodd" clip-rule="evenodd" d="M10.9097 27.6619C10.3577 28.221 10.3635 29.1127 10.9271 29.6648C11.4967 30.2227 12.42 30.2227 12.9895 29.6648L21.7395 21.0934L21.757 21.076C22.309 20.5169 22.3032 19.6252 21.7395 19.0731L12.9895 10.5017L12.9718 10.4846C12.401 9.94384 11.4908 9.94953 10.9271 10.5017L10.9097 10.519C10.3577 11.0782 10.3635 11.9698 10.9271 12.522L18.6459 20.0833L10.9271 27.6445L10.9097 27.6619ZM19.6597 27.6619C19.1077 28.221 19.1135 29.1127 19.6771 29.6648C20.2467 30.2227 21.17 30.2227 21.7395 29.6648L30.4895 21.0934L30.507 21.076C31.059 20.5169 31.0532 19.6252 30.4895 19.0731L21.7395 10.5017L21.7218 10.4846C21.151 9.94384 20.2408 9.94953 19.6771 10.5017L19.6597 10.519C19.1077 11.0782 19.1135 11.9698 19.6771 12.522L27.3959 20.0833L19.6771 27.6445L19.6597 27.6619Z" fill="#666666"/>
</svg>
