<svg width="24" height="24" viewBox="0 0 24 24" fill="none" xmlns="http://www.w3.org/2000/svg">
<path fill-rule="evenodd" clip-rule="evenodd" d="M7.797 5.898C7.797 6.40138 7.59703 6.88414 7.24109 7.24009C6.88514 7.59603 6.40238 7.796 5.899 7.796C5.39562 7.796 4.91286 7.59603 4.55691 7.24009C4.20097 6.88414 4.001 6.40138 4.001 5.898C4.001 5.39462 4.20097 4.91186 4.55691 4.55591C4.91286 4.19997 5.39562 4 5.899 4C6.40238 4 6.88514 4.19997 7.24109 4.55591C7.59703 4.91186 7.797 5.39462 7.797 5.898ZM7.797 10.898C7.797 11.4015 7.59698 11.8844 7.24094 12.2404C6.8849 12.5965 6.40201 12.7965 5.8985 12.7965C5.39499 12.7965 4.9121 12.5965 4.55606 12.2404C4.20002 11.8844 4 11.4015 4 10.898C4 10.3945 4.20002 9.9116 4.55606 9.55556C4.9121 9.19952 5.39499 8.9995 5.8985 8.9995C6.40201 8.9995 6.8849 9.19952 7.24094 9.55556C7.59698 9.9116 7.797 10.3945 7.797 10.898ZM10.898 4C11.4014 4 11.8841 4.19997 12.2401 4.55591C12.596 4.91186 12.796 5.39462 12.796 5.898C12.796 6.40138 12.596 6.88414 12.2401 7.24009C11.8841 7.59603 11.4014 7.796 10.898 7.796C10.3946 7.796 9.91186 7.59603 9.55591 7.24009C9.19997 6.88414 9 6.40138 9 5.898C9 5.39462 9.19997 4.91186 9.55591 4.55591C9.91186 4.19997 10.3946 4 10.898 4Z" fill="#C00000"/>
</svg>
