<svg width="25" height="24" viewBox="0 0 25 24" fill="none" xmlns="http://www.w3.org/2000/svg">
<path fill-rule="evenodd" clip-rule="evenodd" d="M9.6665 17.0707C9.78317 17.0707 9.8985 17.1014 10.0005 17.1601C10.9072 17.6854 11.9445 17.9627 12.9998 17.9627C16.3085 17.9627 18.9998 15.2707 18.9998 11.9627C18.9998 8.65406 16.3085 5.96273 12.9998 5.96273C9.69117 5.96273 6.99984 8.65406 6.99984 11.9627C6.99984 13.0181 7.27717 14.0554 7.80184 14.9621C7.88184 15.0994 7.90917 15.2614 7.8805 15.4181L7.49984 17.4627L9.5445 17.0821C9.58517 17.0741 9.62584 17.0707 9.6665 17.0707ZM12.9998 19.2961C11.7945 19.2961 10.6085 19.0001 9.5525 18.4367L6.7885 18.9514C6.57184 18.9921 6.34984 18.9227 6.19517 18.7674C6.03984 18.6121 5.97117 18.3901 6.01117 18.1741L6.52584 15.4101C5.9625 14.3547 5.6665 13.1681 5.6665 11.9627C5.6665 7.91873 8.9565 4.62939 12.9998 4.62939C17.0432 4.62939 20.3332 7.91873 20.3332 11.9627C20.3332 16.0061 17.0432 19.2961 12.9998 19.2961ZM12.9998 13.9627C12.6312 13.9627 12.3332 13.664 12.3332 13.296C12.3332 11.9534 12.9752 11.3779 13.4444 10.9573L13.4452 10.9567C13.8145 10.626 13.9998 10.46 13.9998 9.96266C13.9998 9.61933 13.8865 9.34866 13.6618 9.15866C13.4532 8.98133 13.1512 8.87933 12.8332 8.87933C12.7138 8.87933 11.6665 8.90933 11.6665 9.96266C11.6665 10.3307 11.3685 10.6293 10.9998 10.6293C10.6312 10.6293 10.3332 10.3307 10.3332 9.96266C10.3332 8.37599 11.5912 7.54599 12.8332 7.54599C14.0752 7.54599 15.3332 8.37599 15.3332 9.96266C15.3332 11.056 14.7565 11.5727 14.3345 11.95C13.9318 12.31 13.6665 12.548 13.6665 13.296C13.6665 13.664 13.3685 13.9627 12.9998 13.9627ZM12.5658 16.4689C12.6905 16.5776 12.8465 16.6309 13.0005 16.6309C13.1885 16.6309 13.3765 16.5523 13.5098 16.3996C13.7512 16.1216 13.7218 15.7003 13.4438 15.4589C13.1665 15.2176 12.7458 15.2463 12.5032 15.5243L12.4965 15.5323C12.2552 15.8103 12.2878 16.2276 12.5658 16.4689Z" fill="#C00000"/>
</svg>
