<svg width="24" height="30" viewBox="0 0 24 30" fill="none" xmlns="http://www.w3.org/2000/svg">
<path fill-rule="evenodd" clip-rule="evenodd" d="M17.8169 9.37201C17.9549 9.36401 18.0959 9.40801 18.2009 9.51301C18.2989 9.61101 18.3479 9.74101 18.3469 9.87001V9.87201V14.148C18.3469 14.424 18.1239 14.648 17.8469 14.648C17.5709 14.648 17.3469 14.424 17.3469 14.148V11.074L12.3679 16.053C12.2699 16.151 12.1419 16.2 12.0139 16.2C11.8869 16.2 11.7589 16.151 11.6609 16.053C11.4659 15.858 11.4659 15.541 11.6609 15.346L16.6349 10.372H13.6009C13.3249 10.372 13.1009 10.149 13.1009 9.87201C13.1009 9.59601 13.3249 9.37201 13.6009 9.37201H17.8169ZM15.194 15.7327C15.194 15.4567 15.418 15.2327 15.694 15.2327C15.97 15.2327 16.194 15.4567 16.194 15.7327V19.2717C16.194 19.5477 15.97 19.7717 15.694 19.7717H8.5C8.223 19.7717 8 19.5477 8 19.2717V12.1947C8 11.9187 8.223 11.6947 8.5 11.6947H12.192C12.468 11.6947 12.692 11.9187 12.692 12.1947C12.692 12.4707 12.468 12.6947 12.192 12.6947H9V18.7717H15.194V15.7327Z" fill="#C00000"/>
</svg>
