<svg width="24" height="27" viewBox="0 0 24 27" fill="none" xmlns="http://www.w3.org/2000/svg">
<path fill-rule="evenodd" clip-rule="evenodd" d="M4.351 1.00037C3.606 1.00037 3 1.60737 3 2.35437V21.6454C3 22.3924 3.606 23.0004 4.351 23.0004H19.984C20.727 23.0004 21.333 22.3924 21.333 21.6454V7.61537C21.333 7.59037 21.323 7.57037 21.318 7.54537C21.313 7.50837 21.311 7.47137 21.297 7.43637C21.275 7.38537 21.244 7.34037 21.207 7.29937C21.202 7.29337 21.201 7.28637 21.194 7.28137L21.193 7.28037C21.193 7.27937 21.192 7.27837 21.191 7.27737L15.117 1.14437C15.116 1.14437 15.116 1.14437 15.116 1.14337C15.071 1.09937 15.018 1.06337 14.958 1.03737C14.901 1.01337 14.839 1.00137 14.775 1.00137C14.775 1.00137 14.774 1.00037 14.772 1.00037H4.351ZM3.965 21.6454V2.35437C3.965 2.13537 4.138 1.95637 4.351 1.95637H14.29V7.61537C14.29 7.88037 14.505 8.09337 14.772 8.09337H20.368V21.6454C20.368 21.8634 20.195 22.0434 19.984 22.0434H4.351C4.138 22.0434 3.965 21.8634 3.965 21.6454ZM15.254 2.64837L19.702 7.13737H15.254V2.64837Z" fill="#666666"/>
<mask id="mask0_986_112580" style="mask-type:luminance" maskUnits="userSpaceOnUse" x="3" y="1" width="19" height="23">
<path fill-rule="evenodd" clip-rule="evenodd" d="M4.351 1.00037C3.606 1.00037 3 1.60737 3 2.35437V21.6454C3 22.3924 3.606 23.0004 4.351 23.0004H19.984C20.727 23.0004 21.333 22.3924 21.333 21.6454V7.61537C21.333 7.59037 21.323 7.57037 21.318 7.54537C21.313 7.50837 21.311 7.47137 21.297 7.43637C21.275 7.38537 21.244 7.34037 21.207 7.29937C21.202 7.29337 21.201 7.28637 21.194 7.28137L21.193 7.28037C21.193 7.27937 21.192 7.27837 21.191 7.27737L15.117 1.14437C15.116 1.14437 15.116 1.14437 15.116 1.14337C15.071 1.09937 15.018 1.06337 14.958 1.03737C14.901 1.01337 14.839 1.00137 14.775 1.00137C14.775 1.00137 14.774 1.00037 14.772 1.00037H4.351ZM3.965 21.6454V2.35437C3.965 2.13537 4.138 1.95637 4.351 1.95637H14.29V7.61537C14.29 7.88037 14.505 8.09337 14.772 8.09337H20.368V21.6454C20.368 21.8634 20.195 22.0434 19.984 22.0434H4.351C4.138 22.0434 3.965 21.8634 3.965 21.6454ZM15.254 2.64837L19.702 7.13737H15.254V2.64837Z" fill="white"/>
</mask>
<g mask="url(#mask0_986_112580)">
</g>
<path d="M5.42529 18.6064C5.42529 18.4329 5.46973 18.3113 5.55859 18.2415C5.64958 18.1695 5.7596 18.1335 5.88867 18.1335C6.01774 18.1335 6.12777 18.1695 6.21875 18.2415C6.31185 18.3113 6.3584 18.4329 6.3584 18.6064C6.3584 18.7757 6.31185 18.8984 6.21875 18.9746C6.12777 19.0487 6.01774 19.0857 5.88867 19.0857C5.7596 19.0857 5.64958 19.0487 5.55859 18.9746C5.46973 18.8984 5.42529 18.7757 5.42529 18.6064ZM8.09448 17.2036L6.92017 15.4866H7.77075L8.57373 16.7212L9.37988 15.4866H10.2273L9.04663 17.2036L10.2876 19H9.43384L8.57373 17.6829L7.71045 19H6.86304L8.09448 17.2036ZM11.646 19H10.897V14.0615H11.646V19ZM13.49 17.2036L12.3157 15.4866H13.1663L13.9692 16.7212L14.7754 15.4866H15.6228L14.4421 17.2036L15.6831 19H14.8293L13.9692 17.6829L13.106 19H12.2585L13.49 17.2036ZM18.6538 17.9971C18.6538 18.2277 18.5977 18.4224 18.4856 18.5811C18.3735 18.7397 18.2095 18.8604 17.9937 18.9429C17.7799 19.0233 17.5176 19.0635 17.2065 19.0635C16.9611 19.0635 16.7495 19.0455 16.5718 19.0095C16.3962 18.9757 16.2301 18.9228 16.0735 18.8508V18.2065C16.2406 18.2848 16.4279 18.3525 16.6353 18.4097C16.8447 18.4668 17.0426 18.4954 17.2288 18.4954C17.4742 18.4954 17.6509 18.4573 17.7588 18.3811C17.8667 18.3028 17.9207 18.1991 17.9207 18.0701C17.9207 17.9939 17.8984 17.9262 17.854 17.8669C17.8117 17.8056 17.7313 17.7432 17.6128 17.6797C17.4964 17.6141 17.325 17.5358 17.0986 17.4448C16.8765 17.356 16.6892 17.2671 16.5369 17.1782C16.3845 17.0894 16.2692 16.9825 16.1909 16.8577C16.1126 16.7307 16.0735 16.5688 16.0735 16.3721C16.0735 16.061 16.1962 15.8251 16.4417 15.6643C16.6892 15.5014 17.0161 15.4199 17.4224 15.4199C17.6382 15.4199 17.8413 15.4421 18.0317 15.4866C18.2243 15.5289 18.4126 15.5913 18.5967 15.6738L18.3618 16.2356C18.2031 16.1658 18.0434 16.1086 17.8826 16.0642C17.7239 16.0177 17.562 15.9944 17.397 15.9944C17.2044 15.9944 17.0574 16.024 16.9558 16.0833C16.8564 16.1425 16.8066 16.2271 16.8066 16.3372C16.8066 16.4197 16.831 16.4895 16.8796 16.5466C16.9283 16.6038 17.0119 16.6609 17.1304 16.718C17.251 16.7751 17.4181 16.846 17.6318 16.9307C17.8413 17.0111 18.0222 17.0957 18.1746 17.1846C18.329 17.2713 18.4475 17.3782 18.53 17.5051C18.6125 17.6321 18.6538 17.7961 18.6538 17.9971Z" fill="#666666"/>
</svg>
